<?xml version="1.0" encoding="UTF-8" standalone="no"?>
<!-- Created with Inkscape (http://www.inkscape.org/) -->

<svg
   xmlns:dc="http://purl.org/dc/elements/1.1/"
   xmlns:cc="http://creativecommons.org/ns#"
   xmlns:rdf="http://www.w3.org/1999/02/22-rdf-syntax-ns#"
   xmlns:svg="http://www.w3.org/2000/svg"
   xmlns="http://www.w3.org/2000/svg"
   xmlns:sodipodi="http://sodipodi.sourceforge.net/DTD/sodipodi-0.dtd"
   xmlns:inkscape="http://www.inkscape.org/namespaces/inkscape"
   width="24mm"
   height="24mm"
   viewBox="0 0 85.03937 85.03937"
   id="svg4153"
   version="1.1"
   inkscape:version="0.91 r13725"
   sodipodi:docname="atp.svg">
  <defs
     id="defs4155" />
  <sodipodi:namedview
     id="base"
     pagecolor="#182843"
     bordercolor="#666666"
     borderopacity="1.0"
     inkscape:pageopacity="1"
     inkscape:pageshadow="2"
     inkscape:zoom="2.858325"
     inkscape:cx="56.762658"
     inkscape:cy="58.925243"
     inkscape:document-units="px"
     inkscape:current-layer="layer1"
     showgrid="false"
     inkscape:window-width="1920"
     inkscape:window-height="1017"
     inkscape:window-x="1912"
     inkscape:window-y="-8"
     inkscape:window-maximized="1" />
  <metadata
     id="metadata4158">
    <rdf:RDF>
      <cc:Work
         rdf:about="">
        <dc:format>image/svg+xml</dc:format>
        <dc:type
           rdf:resource="http://purl.org/dc/dcmitype/StillImage" />
        <dc:title></dc:title>
      </cc:Work>
    </rdf:RDF>
  </metadata>
  <g
     inkscape:label="Layer 1"
     inkscape:groupmode="layer"
     id="layer1"
     transform="translate(0,-967.32283)">
    <g
       id="g4259"
       transform="matrix(3.0490726,0,0,3.0490726,-104.43326,992.1267)"
       style="display:inline;fill:#ffffff">
      <g
         id="g4261"
         style="fill:#ffffff">
        <path
           id="path4279-5"
           d="m 44.352689,19.325176 c -0.767,-0.036 -0.797,-0.237 -0.909,-0.688 l -0.096,-0.427 -3.72,0 -0.335,0.427 c -0.591,0.736 -0.543,0.7 -2.555,0.7 l 4.343,-5.338 c 0.574,-0.713 0.67,-0.748 1.725,-0.748 l 1.069,0 1.548,6.086 c -0.654,0 -0.846,0 -1.07,-0.012 m -1.787,-4.923 -2.171,2.8 2.746,0 -0.575,-2.8 z"
           inkscape:connector-curvature="0"
           style="display:inline;fill:#ffffff" />
        <path
           id="path4281-3"
           d="m 52.460689,13.892176 c -0.063,0.131 -0.127,0.249 -0.271,0.333 -0.191,0.118 -0.526,0.142 -1.165,0.142 l -1.038,0 -1.421,4.971 c -1.646,0 -1.756,-0.035 -1.501,-0.949 l 1.149,-4.021 -2.346,0 c 0.303,-1.021 0.383,-1.103 1.548,-1.103 l 5.237,0 c -0.097,0.354 -0.143,0.509 -0.192,0.627"
           inkscape:connector-curvature="0"
           style="display:inline;fill:#ffffff" />
        <path
           id="path4283-4"
           d="m 55.637689,17.320176 -1.437,0 -0.303,1.043 -0.288,0.974 c -0.335,0 -1.245,0.048 -1.518,-0.131 -0.159,-0.13 -0.143,-0.355 0,-0.843 l 1.183,-4.139 c 0.144,-0.487 0.175,-0.891 1.053,-0.95 0.191,-0.011 0.464,-0.011 0.831,-0.011 l 1.548,0 c 3.257,0 3.271,1.149 3.017,2.017 -0.238,0.842 -0.797,2.04 -4.086,2.04 m 0.798,-2.966 -1.388,0 -0.543,1.897 1.421,0 c 1.676,0 1.692,0.013 1.963,-0.972 0.128,-0.415 0.144,-0.925 -1.453,-0.925"
           inkscape:connector-curvature="0"
           style="display:inline;fill:#ffffff" />
        <path
           id="path4303-6"
           d="m 60.705689,1.6561755 c -0.041,-0.161 -0.285,-0.244 -0.285,-0.244 -0.008,-0.195 -0.279,-0.258 -0.279,-0.258 l -0.014,-0.021 c -0.056,-0.21599995 -0.299,-0.16699995 -0.299,-0.16699995 l 0,-0.049 c -0.042,-0.146 -0.272,-0.097 -0.272,-0.097 -0.104,-0.176 -0.307,-0.021 -0.307,-0.021 -0.056,0.118 -0.188,0.118 -0.188,0.118 -0.299,0.014 -0.326,0.17499995 -0.326,0.17499995 l -0.076,0.229 c -0.188,0.391 -0.085,0.543 -0.085,0.543 0.069,0.14 0.099,0.224 0.099,0.224 0.041,0.32 0.139,0.563 0.139,0.563 -0.16,0.028 -0.188,0.224 -0.188,0.224 -0.05,0.181 -0.6,0.776 -0.6,0.776 -0.146,0.077 -0.041,0.265 -0.041,0.265 -0.523,0.509 -0.796,0.659 -0.796,0.659 -1.093,0.695 -1.937,1.665 -1.937,1.665 -0.683,-0.14 -1.553,0.049 -1.553,0.049 l -0.008,-0.099 c -0.467,0.105 -1.003,0.391 -1.003,0.391 -0.133,0.063 -0.342,0.007 -0.342,0.007 -0.739,-0.39 -2.062,-0.271 -2.062,-0.271 -0.669,0.159 -0.836,0.229 -0.836,0.229 l -1.293,0.058 -0.078,-0.22 c -0.026,-0.062 -0.125,-0.098 -0.125,-0.098 l -0.016,-10e-4 c 0,-0.079 -0.011,-0.15 -0.027,-0.22 l -0.031,-0.789 0.329,-0.432 c 0.1,0.007 -0.076,-1.07 -0.076,-1.07 0.03,-0.165 -0.244,-0.776 -0.244,-0.776 0.086,-0.458 -0.25,-0.777 -0.25,-0.777 0,0 -0.189,-0.241 -0.228,-0.396 -0.037,-0.156 -0.514,-0.411 -0.84,-0.523 -0.327,-0.114 -0.925,0.002 -1.617,0.449 -0.694,0.448 -0.822,1.376 -0.823,1.516 0,0.14 0.253,0.837 0.222,0.845 -0.03,0.008 -0.155,-0.042 -0.059,0.354 0.097,0.396 0.58,0.696 0.58,0.696 0.104,0.034 0.304,0.727 0.385,1.02 l -0.091,0.037 -0.073,0.14 -0.167,0.126 c -0.065,0.021 -0.212,0.032 -0.39,0.041 -0.166,-0.049 -0.849,-0.215 -1.879,-0.05 l -1.016,-0.511 -0.067,0.104 c -0.267,-0.08 -0.58,-0.138 -0.915,-0.11 0,0 -0.728,-1.46 -1.392,-1.979 l -0.006,-0.053 c 0.002,-0.001 0.004,-0.001 0.005,-0.002 0.058,-0.039 0,-0.192 0,-0.269 0,-0.077 -0.207,-0.313 -0.207,-0.313 l -0.287,-0.461 c 0,0 -0.097,-0.23 -0.135,-0.365 -0.039,-0.134 -0.152,-0.057 -0.152,-0.057 -0.054,-0.152 -0.068,-0.312 -0.018,-0.352 0.05,-0.041 0.299,-0.965 0.313,-1.095 0.015,-0.12899995 -0.23,-0.61899995 -0.268,-0.73699995 0.296,-0.261 0.854,-0.746 0.997,-0.831 1.112,-0.65500005 2.077,-1.51600005 2.535,-2.74900005 0.718,-1.934 0.364,-3.593 -0.893,-4.2270004 l -0.047,-0.024 -0.061,-0.03 -0.053,-0.025 c -1.195,-0.406 -2.56,0.2790004 -3.403,2.1450004 -0.541,1.194 -0.566,2.465 -0.273,3.804 0.063,0.282 0.085,0.72900005 0.062,1.18800005 l 0.001,0 -0.004,0.083 -0.347,0.06 c -0.142,0.064 -0.105,0.161 -0.105,0.161 l 0.09,0.525 -0.015,0.02 c -0.066,0.013 -0.159,0.06 -0.169,0.21 l -0.017,0.016 c -0.181,0.032 -0.17,0.305 -0.17,0.305 -0.254,0.078 -0.164,0.30999995 -0.164,0.30999995 -0.186,0.122 -0.028,0.289 0.024,0.379 0.052,0.09 0.296,0.636 0.296,0.636 l -0.274,0.739 c -0.354,0.861 -0.71,1.717 -0.711,1.718 -0.012,0.032 -0.032,0.051 -0.052,0.065 l -0.04,0.025 c -0.01,0.007 -0.029,0.022 -0.04,0.102 0.04,0.069 0.185,0.167 0.384,0.26 0.194,0.099 0.273,0.113 0.343,0.101 0.046,-0.061 0.046,-0.087 0.045,-0.104 -10e-4,-0.017 -0.006,-0.032 -0.009,-0.047 -0.002,-0.023 -0.002,-0.05 0.012,-0.081 10e-4,0 0.269,-0.663 0.572,-1.409 l 0.005,0.003 0.224,-0.524 0.048,0.063 c -0.016,0.006 -0.072,0.034 -0.043,0.115 0.036,0.094 0.036,0.14 0.083,0.187 0.046,0.047 0.069,0.07 0.093,0.163 0.023,0.095 0.005,0.246 0.035,0.292 0.01,0.015 0.032,0.051 0.06,0.091 0.016,0.102 0.069,0.2 0.092,0.351 0.017,0.124 0.073,0.1 0.073,0.1 0,0 0.009,-0.004 0.025,-0.009 0.257,0.627 0.922,2.427 1.867,3.303 0,0 0.371,0.068 0.694,0.299 l -0.021,0.03 -0.072,0.12 c 0,0 0.239,0.118 0.43,0.238 0.181,0.112 1.02,0.609 1.495,0.803 l 0.259,1.3430005 8.431,0 c 0.023,-0.149 0.039,-0.237 0.039,-0.237 0.119,-0.7450005 0.871,-1.0940005 0.871,-1.0940005 0.175,-0.118 1.686,-0.285 1.686,-0.285 l -0.007,-0.118 c 1.874,-0.418 2.802,-1.122 2.802,-1.122 0.377,-0.063 0.419,-0.16 0.419,-0.16 0.048,-0.071 0.263,-0.237 0.263,-0.237 1.074,-0.725 2.21,-2.733 2.21,-2.733 0.236,0.078 0.299,-0.153 0.299,-0.153 0.09,-0.125 0.613,-0.799 0.613,-0.799 0.153,-0.139 0.063,-0.251 0.063,-0.251 l -0.077,-0.097 0.027,-0.028 c 0.07,-0.077 0.161,-0.341 0.209,-0.397 0.049,-0.056 0.203,-0.39 0.203,-0.39 0.028,-0.105 0.195,-0.439 0.195,-0.439 0.137,-0.178 0.088,-0.373 0.088,-0.373 m -22.644,-6.831 c 0.281,-0.697 1.3,-2.6520004 2.847,-1.95 1.369,0.622 1.276,2.535 0.727,3.727 -0.8,1.733 -2.034,2.83900005 -3.195,2.194 -1.239,-0.689 -0.82,-2.872 -0.379,-3.971 m -0.048,5.34100005 -0.108,-0.071 c 0.02,-0.227 -0.208,-0.396 -0.208,-0.396 l 0.002,-0.282 c 0.004,-0.119 0.007,-0.229 0.005,-0.328 -0.002,-0.097 0.005,-0.16700005 0.005,-0.22500005 0,-0.051 0.03,-0.062 0.06,-0.059 0.034,0.004 0.185,0.148 0.185,0.148 0.091,0.0820001 0.166,0.14700005 0.377,0.26300005 0.231,0.126 0.308,0.123 0.431,0.13 0.061,0.003 0.11,0.003 0.153,0.011 0.04,0.008 0.072,0.021 0.101,0.051 0.016,0.015 0.02,0.038 -0.009,0.083 -0.027,0.046 -0.079,0.101 -0.147,0.165 -0.015,0.013 -0.397,0.329 -0.591,0.51 l -0.256,0 z"
           inkscape:connector-curvature="0"
           style="display:inline;fill:#ffffff" />
        <path
           id="path4305-2"
           d="m 48.278689,10.701176 c 4.289,0 8.267,0.888 11.539,2.4 -3.092,-2.043 -7.126,-3.2800005 -11.539,-3.2800005 -4.414,0 -8.448,1.2360005 -11.541,3.2800005 3.274,-1.513 7.251,-2.4 11.541,-2.4"
           inkscape:connector-curvature="0"
           style="display:inline;fill:#ffffff" />
      </g>
    </g>
  </g>
</svg>
