<?xml version="1.0" encoding="UTF-8" standalone="no"?>
<!-- Created with Inkscape (http://www.inkscape.org/) -->

<svg
   xmlns:dc="http://purl.org/dc/elements/1.1/"
   xmlns:cc="http://creativecommons.org/ns#"
   xmlns:rdf="http://www.w3.org/1999/02/22-rdf-syntax-ns#"
   xmlns:svg="http://www.w3.org/2000/svg"
   xmlns="http://www.w3.org/2000/svg"
   xmlns:sodipodi="http://sodipodi.sourceforge.net/DTD/sodipodi-0.dtd"
   xmlns:inkscape="http://www.inkscape.org/namespaces/inkscape"
   id="svg2"
   version="1.1"
   inkscape:version="0.91 r13725"
   width="103.57917"
   height="242.2955"
   viewBox="0 0 103.57917 242.2955"
   sodipodi:docname="fifa_confederations_cup_2017.svg">
  <metadata
     id="metadata8">
    <rdf:RDF>
      <cc:Work
         rdf:about="">
        <dc:format>image/svg+xml</dc:format>
        <dc:type
           rdf:resource="http://purl.org/dc/dcmitype/StillImage" />
        <dc:title></dc:title>
      </cc:Work>
    </rdf:RDF>
  </metadata>
  <defs
     id="defs6" />
  <sodipodi:namedview
     pagecolor="#ffffff"
     bordercolor="#666666"
     borderopacity="1"
     objecttolerance="10"
     gridtolerance="10"
     guidetolerance="10"
     inkscape:pageopacity="0"
     inkscape:pageshadow="2"
     inkscape:window-width="1920"
     inkscape:window-height="1027"
     id="namedview4"
     showgrid="false"
     inkscape:zoom="2"
     inkscape:cx="226.27136"
     inkscape:cy="128.11097"
     inkscape:window-x="-8"
     inkscape:window-y="-8"
     inkscape:window-maximized="1"
     inkscape:current-layer="svg2" />
  <path
     style="fill:#ffffff"
     d="m 44.121569,242.15136 c -6.923029,-0.36214 -11.73496,-0.99864 -16.41356,-2.17111 -8.55792,-2.14466 -13.33701,-5.78751 -14.0319,-10.69579 -0.0897,-0.63369 -0.0457,-2.93252 0.079,-4.13104 0.64938,-6.23766 3.14294,-13.48558 8.156851,-23.70913 l 1.170729,-2.38716 -0.37458,-0.6611 c -0.43014,-0.75916 -0.78851,-1.57461 -0.918,-2.08886 l -0.0896,-0.35587 0.62266,-1.20386 c 2.67134,-5.16488 5.3159,-8.03507 9.50782,-10.31902 0.222341,-0.12114 0.227661,-0.13935 0.401061,-1.37172 0.0967,-0.68692 0.19198,-1.64764 0.211849,-2.13493 l 0.0361,-0.88598 -0.62677,-0.5988 c -2.67474,-2.55543 -3.99195,-6.85813 -3.46876,-11.33076 0.45447,-3.88509 2.19506,-7.52437 5.00087,-10.45597 l 0.583501,-0.60965 0.19433,-0.95258 c 0.10689,-0.52393 0.23489,-1.24407 0.28445,-1.60034 0.10219,-0.73458 0.124749,-2.72534 0.0406,-3.58171 l -0.0562,-0.57155 -0.52524,-0.33591 c -3.99697,-2.55618 -6.14541,-7.97696 -5.25083,-13.24843 0.4391,-2.58747 1.51024,-4.79586 3.12818,-6.44946 l 0.51512,-0.52648 -0.07,-1.15084 c -0.11548,-1.89935 -0.33739,-3.94151 -0.83309,-7.66652 -0.23815,-1.78958 -0.8395,-6.89283 -0.8395,-7.12422 0,-0.0283 -0.19384,0.17568 -0.43076,0.45321 -0.44556,0.52193 -1.30592,1.25653 -1.96974,1.68179 -2.78933,1.78692 -6.90578,2.3644 -11.58341,1.62501 -0.54488,-0.0861 -1.03476,-0.18092 -1.08863,-0.21064 -0.0655,-0.0361 0.0473,-0.15353 0.34028,-0.35433 1.85138,-1.26867 3.31504,-3.87587 3.97613,-7.0827 0.35524,-1.72318 0.42661,-2.55434 0.42534,-4.95344 -0.002,-3.3499 -0.24425,-4.87233 -1.26136,-7.91937 C 16.99255,91.164618 14.94728,86.925268 10.15609,78.814436 9.2771497,77.326502 8.2741096,75.596078 7.9271297,74.969043 c -0.78393,-1.416605 -2.92964,-5.774975 -3.7755,-7.668777 -2.11437,-4.733879 -3.35880998,-9.342186 -3.89787008,-14.434178 -0.16368,-1.54617 -0.18823,-5.824186 -0.0424,-7.39204 C 0.87575962,38.330252 3.2548197,31.245279 7.1460896,24.822059 19.01559,5.2293656 43.04742,-4.1461744 65.822929,1.9304638 c 3.8373,1.0238137 8.085761,2.6831571 11.33408,4.4268125 14.04391,7.5385817 23.625361,20.9626507 25.825571,36.1828167 0.35829,2.478502 0.45624,3.941803 0.45909,6.858595 0.003,2.740806 -0.0565,3.811143 -0.34147,6.172734 -0.74557,6.179209 -2.58885,12.261947 -5.80794,19.16596 -1.95035,4.18292 -5.50937,11.465576 -10.27884,21.033044 -3.99733,8.018604 -5.13115,10.378684 -5.81239,12.098674 -3.05304,7.70824 -3.65835,15.02286 -1.78304,21.54661 0.82877,2.88308 2.16015,5.59845 3.82539,7.80192 0.28123,0.37212 0.49916,0.68875 0.4843,0.70361 -0.0383,0.0383 -2.41047,-0.25057 -3.14137,-0.38246 -2.48944,-0.44925 -4.61461,-1.1949 -6.39925,-2.24528 -0.36914,-0.21726 -0.69007,-0.37611 -0.71318,-0.353 -0.0766,0.0766 -0.15398,2.33025 -0.15968,4.65171 -0.01,3.87987 -0.49388,9.78877 -0.98882,12.06341 l -0.13826,0.63534 0.3781,0.88879 c 0.89333,2.09995 2.11014,6.17363 2.67835,8.96669 0.83895,4.12383 1.16877,7.56396 1.08866,11.35479 -0.0483,2.28459 -0.16996,3.72067 -0.47412,5.59558 -0.16826,1.03724 -0.18104,1.24802 -0.10853,1.79086 0.26827,2.00847 0.98152,4.16373 2.032,6.14024 0.77216,1.45282 1.39454,2.40727 3.38113,5.18507 2.07183,2.897 2.92692,4.2873 3.55039,5.77262 0.50553,1.20437 0.79121,2.38101 0.84436,3.47767 0.0434,0.89661 0.0495,0.92096 0.45738,1.82895 3.37183,7.50686 5.07787,13.96154 5.50036,20.81019 0.2053,3.32795 0.17932,4.52109 -0.12278,5.63929 -1.54695,5.72604 -9.80575,9.8034 -23.53261,11.61802 -2.49473,0.32979 -5.50947,0.59715 -8.61135,0.76368 -1.25009,0.0671 -13.93039,0.0906 -15.12701,0.028 z m -8.51704,-10.71406 0.02,-2.76249 1.717559,-0.0204 1.717551,-0.0204 0.55962,-1.54178 c 0.30779,-0.848 0.57592,-1.58467 0.59585,-1.63705 0.0285,-0.0749 -0.46205,-0.0953 -2.29777,-0.0953 l -2.334001,0 0.0206,-1.58129 0.0206,-1.58128 2.89585,-0.0203 2.89585,-0.0203 0.57155,-1.56719 c 0.31435,-0.86196 0.58298,-1.59872 0.59695,-1.63724 0.0153,-0.0422 -2.30947,-0.0701 -5.84886,-0.0701 l -5.87426,0 0,7.65876 0,7.65877 2.36146,0 2.36145,0 0.02,-2.76249 z m 13.24185,-4.89627 0,-7.65876 -2.3624,0 -2.36241,0 0,7.65876 0,7.65877 2.36241,0 2.3624,0 0,-7.65877 z m 8.0779,4.87866 0,-2.78013 1.72707,-0.0205 1.72707,-0.0205 0.58848,-1.60033 0.58848,-1.60034 -2.31709,-0.0202 -2.3171,-0.0202 0.0206,-1.58018 0.0206,-1.58018 2.88646,-0.0381 2.88645,-0.0381 0.37748,-1.02879 c 0.20761,-0.56583 0.47522,-1.29456 0.59467,-1.61939 l 0.2172,-0.5906 -5.86258,0 -5.86259,0 0,7.65876 0,7.65877 2.36241,0 2.3624,0 0,-2.78011 z m 9.41847,2.17044 c 0.0909,-0.31434 0.22334,-0.76916 0.29438,-1.0107 l 0.129171,-0.43914 2.71718,0.02 2.717169,0.02 0.30086,1.00974 0.30086,1.00974 2.39209,0 c 2.24428,0 2.38934,-0.008 2.34769,-0.13337 -0.0244,-0.0733 -1.27363,-3.51122 -2.77604,-7.63971 l -2.73166,-7.50635 -2.47983,-0.0201 -2.47983,-0.0201 -0.11342,0.32492 c -0.0624,0.17869 -1.20101,3.30839 -2.53028,6.95488 -1.32927,3.64648 -2.53201,6.94768 -2.67274,7.33598 l -0.25589,0.70601 2.33754,-0.0202 2.33753,-0.0202 0.16522,-0.57155 z m 1.32666,-4.46405 c 0,-0.18934 1.77332,-6.28591 1.81599,-6.24325 0.0317,0.0317 1.91814,6.26707 1.91814,6.34005 0,0.0129 -0.84018,0.0235 -1.86707,0.0235 -1.64998,0 -1.86706,-0.014 -1.86706,-0.12028 z m 10.34505,-15.30788 0,-0.17784 -0.37331,0.15515 c -0.40698,0.16913 -0.45157,0.27954 -0.0574,0.14213 0.33063,-0.11526 0.41037,-0.1069 0.2959,0.031 -0.0797,0.0961 -0.0764,0.10842 0.0192,0.0717 0.0636,-0.0244 0.11556,-0.12438 0.11556,-0.22219 z m -1.554829,-6.3503 c 0.759919,-0.35561 1.33734,-0.78199 1.95944,-1.4469 0.87405,-0.93421 1.47153,-2.0676 1.71786,-3.25873 0.24015,-1.16128 0.0376,-2.52564 -0.4775,-3.21615 -0.26623,-0.3569 -0.825231,-0.50298 -1.778271,-0.4647 -0.67362,0.0271 -0.79444,0.0561 -1.32644,0.31905 -0.38793,0.19173 -0.76451,0.4615 -1.11667,0.79997 l -0.53134,0.5107 -0.32271,-0.22086 c -1.18396,-0.81029 -2.70979,-1.02561 -3.97066,-0.56033 -0.28791,0.10624 -0.55228,0.22197 -0.58748,0.25717 -0.0352,0.0352 -0.12118,0.28659 -0.19107,0.55866 -0.38446,1.49652 0.32126,3.37768 1.86783,4.97888 0.91722,0.94961 1.93623,1.57106 3.092111,1.88573 0.66982,0.18235 1.03812,0.15083 1.6649,-0.14248 z m -1.56873,-0.70046 c -0.945661,-0.35151 -1.76964,-0.88082 -2.4944,-1.60237 -0.74394,-0.74065 -1.08252,-1.33478 -1.22318,-2.1465 -0.0908,-0.52376 -0.004,-1.2755 0.1716,-1.49237 0.10984,-0.13539 1.29268,-0.12276 1.839399,0.0196 0.644261,0.1678 1.208771,0.45679 1.627241,0.83303 l 0.36856,0.33137 0.34075,-0.42602 c 0.61551,-0.76951 1.63594,-1.30583 2.71732,-1.42818 l 0.46361,-0.0524 0.17528,0.44703 c 0.25366,0.64693 0.25618,1.76564 0.006,2.49135 -0.2436,0.70552 -0.81255,1.53127 -1.49276,2.16651 -0.55375,0.51714 -1.48863,1.08917 -1.76808,1.08183 -0.0777,-0.002 -0.406631,-0.10233 -0.73096,-0.22288 z m -23.75832,0.50864 c 0.29853,-0.10997 0.55263,-0.2879 0.88304,-0.61831 0.57985,-0.57984 0.80197,-1.10937 0.80197,-1.91184 0,-1.61752 -1.2876,-2.7949 -2.94054,-2.68882 -1.01176,0.0649 -1.88628,0.65805 -2.31321,1.56885 -0.17339,0.36991 -0.20349,0.53579 -0.20349,1.12157 0,0.62318 0.0234,0.73505 0.25047,1.19625 0.65002,1.32038 2.0828,1.86241 3.52176,1.3323 z M 39.8159,201.54689 c 2.56442,-0.34343 6.12735,-1.32602 9.18289,-2.53245 7.16717,-2.82982 13.09697,-7.98371 17.03524,-14.80619 2.375709,-4.11555 4.05737,-9.16901 4.67887,-14.06011 0.23917,-1.88231 0.3096,-3.02553 0.3096,-5.02547 0,-2.01889 -0.0782,-3.29214 -0.30898,-5.0338 -0.216171,-1.63107 -0.24197,-1.79875 -0.27205,-1.76867 -0.0148,0.0148 -0.16235,0.50453 -0.32789,1.0883 -2.87467,10.13732 -9.57254,18.45127 -18.44125,22.89081 -3.20013,1.60194 -6.38148,2.64015 -10.52282,3.43408 -4.31699,0.8276 -6.44864,1.53586 -8.64143,2.87117 -2.30089,1.40113 -4.27867,3.46657 -5.91386,6.17596 l -0.47058,0.77971 0.7115,0.81818 c 2.99698,3.44636 5.41194,4.88773 8.85432,5.28472 0.78546,0.0906 3.06064,0.0265 4.12644,-0.11624 z m 21.49567,-0.6142 c 1.01216,-0.62577 1.17346,-2.02616 0.33047,-2.86914 -0.862341,-0.86233 -2.19996,-0.72251 -2.92247,0.30549 -0.18862,0.26837 -0.23367,0.41758 -0.25844,0.85582 -0.0257,0.45564 -10e-4,0.58898 0.17105,0.9417 0.3483,0.71191 0.93415,1.04905 1.76692,1.01681 0.44676,-0.0173 0.60552,-0.0609 0.91247,-0.25068 z m 13.56283,-2.88947 c 0.39449,-0.39449 0.12491,-1.03226 -0.43634,-1.03226 -0.29916,0 -0.59591,0.3036 -0.59591,0.60966 0,0.14848 0.0691,0.30469 0.18705,0.4226 0.117909,0.11791 0.274119,0.18705 0.4226,0.18705 0.14848,0 0.304689,-0.0691 0.4226,-0.18705 z m -0.2698,-2.7088 c 0.2298,0 0.60033,-0.36968 0.68476,-0.68321 0.17624,-0.6545 -0.28394,-1.22196 -0.99096,-1.22196 -0.857051,0 -1.29914,0.99897 -0.712901,1.61087 0.21551,0.22495 0.59164,0.38243 0.77727,0.32544 0.0558,-0.0171 0.164641,-0.0311 0.24183,-0.0311 z M 41.67137,180.73926 c 2.28905,-1.04407 1.99468,-4.33974 -0.44288,-4.9583 -0.901241,-0.2287 -1.784411,0.0139 -2.50528,0.68819 -1.04721,0.97954 -1.076811,2.64381 -0.0656,3.68752 0.341231,0.35221 0.86235,0.65514 1.329431,0.77283 0.453569,0.1143 1.20196,0.0298 1.684319,-0.19024 z m 11.07807,-1.55951 c 1.56478,-0.48332 2.5759,-1.83761 2.5736,-3.44708 -5.4e-4,-0.3471 -0.0479,-0.8077 -0.1054,-1.02355 -0.41203,-1.54748 -1.92347,-2.69392 -3.55162,-2.69392 -2.37984,0 -4.20287,2.28349 -3.61743,4.53112 0.35271,1.35415 1.4794,2.44768 2.81727,2.73437 0.43869,0.094 1.42322,0.0412 1.88358,-0.10094 z m -19.08283,-5.43584 c 1.01243,-1.0343 2.5708,-1.78663 4.9962,-2.41199 0.48946,-0.12621 1.83353,-0.41836 2.98681,-0.64924 3.47394,-0.69546 5.03519,-1.13158 7.41658,-2.07177 7.90483,-3.12089 14.2661,-9.01245 17.92339,-16.59994 1.92347,-3.99046 3.01988,-8.22676 3.35297,-12.95513 0.0886,-1.25807 0.051,-5.31755 -0.0558,-6.01237 -0.043,-0.27995 -0.0684,-0.22998 -0.444371,0.87638 -2.54183,7.47867 -6.8744,12.69876 -13.35842,16.09486 -2.94326,1.54157 -5.4523,2.49659 -9.8476,3.74829 -3.32492,0.94686 -4.33072,1.31649 -6.26609,2.30275 -4.14592,2.11274 -6.87401,5.13637 -7.97345,8.83724 -0.82079,2.76287 -0.76702,6.1573 0.1516,9.57037 l 0.15909,0.59109 0.26264,-0.43868 c 0.14445,-0.24127 0.45784,-0.6381 0.69643,-0.88185 z m 26.83496,-2.2298 c 0.55755,-0.16557 1.09031,-0.67207 1.305079,-1.24077 0.34865,-0.92317 0.0327,-1.90832 -0.79706,-2.48534 -0.38399,-0.26702 -0.49653,-0.30602 -0.95832,-0.33211 -0.94501,-0.0534 -1.70894,0.36185 -2.10554,1.1445 -0.60911,1.20201 0.003,2.55401 1.340961,2.96251 0.317199,0.0968 0.788179,0.0779 1.21488,-0.0488 z M 42.63554,151.63306 c 1.07222,-0.4841 1.59819,-1.7509 1.2059,-2.90446 -0.17369,-0.51075 -0.84208,-1.17914 -1.35283,-1.35283 -1.51062,-0.51371 -3.03892,0.46366 -3.15073,2.01492 -0.0483,0.66997 0.1206,1.1693 0.56128,1.65944 0.7182,0.79882 1.76454,1.02172 2.73638,0.58293 z m 10.65334,-2.20215 c 0.55276,-0.27044 1.0517,-0.76991 1.32494,-1.32634 0.19209,-0.39117 0.21478,-0.51788 0.21478,-1.19945 0,-0.66663 -0.0255,-0.81643 -0.203491,-1.19617 -0.259149,-0.55287 -0.74775,-1.04148 -1.32479,-1.3248 -0.40892,-0.20078 -0.52738,-0.22246 -1.215159,-0.22246 -0.67885,0 -0.813941,0.024 -1.237161,0.21943 -0.574489,0.26535 -1.09223,0.79216 -1.378239,1.40239 -0.17704,0.37772 -0.20408,0.53219 -0.20301,1.15972 9.99e-4,0.66188 0.0217,0.7634 0.24056,1.18399 0.54167,1.04118 1.46137,1.57277 2.65833,1.5365 0.57358,-0.0174 0.76326,-0.0567 1.12324,-0.23281 z m -19.21286,-3.2688 c 0.25505,-0.48708 0.50088,-0.80172 1.09127,-1.39671 0.77188,-0.77788 1.36476,-1.21605 2.40051,-1.77406 1.53282,-0.82582 4.06387,-1.7275 7.62066,-2.71484 3.77857,-1.04891 6.02194,-1.78314 8.3831,-2.74371 7.89052,-3.21002 13.01035,-7.46214 15.96718,-13.26103 1.54992,-3.03966 2.5318,-6.80669 2.741159,-10.51651 l 0.0473,-0.83827 -0.31042,0.66843 c -3.70839,7.98519 -11.27028,12.57935 -22.59885,13.72973 -0.62871,0.0639 -2.01303,0.16894 -3.07627,0.23356 -2.04574,0.12432 -3.17103,0.25507 -4.35388,0.50587 -5.15757,1.09359 -8.56547,3.74012 -9.78428,7.59834 -1.00509,3.18169 -0.75686,6.91277 0.64548,9.7019 0.29528,0.58727 0.80794,1.436 0.8674,1.436 0.0167,0 0.17857,-0.28291 0.35964,-0.6287 z m 26.69452,-3.89977 c 0.2246,-0.0938 0.25403,-0.0938 0.21801,0 -0.0548,0.14293 0.15688,0.14195 0.27574,-0.001 0.0501,-0.0604 0.0818,-0.17183 0.0704,-0.24767 -0.0114,-0.0759 0.0238,-0.26874 0.0782,-0.42865 0.42756,-1.25742 -1.40161,-1.99447 -2.01345,-0.81131 -0.45482,0.87953 0.45774,1.87052 1.37107,1.48892 z M 52.5043,119.58512 c 6.06714,-0.51813 11.29121,-3.23092 14.02578,-7.28338 0.38174,-0.5657 1.13933,-1.99713 1.13933,-2.15267 0,-0.043 -0.23617,0.0516 -0.52483,0.21025 -2.179,1.19775 -4.83633,1.84002 -7.62927,1.84396 -3.88057,0.005 -6.86404,-1.16266 -9.5471,-3.7379 -1.84584,-1.77169 -3.2966,-4.12448 -4.16234,-6.75033 -0.20657,-0.62654 -0.41673,-1.15288 -0.46701,-1.16965 -0.0648,-0.0216 -0.067,-0.0456 -0.007,-0.0824 0.0591,-0.0365 0.0276,-0.30259 -0.10629,-0.896886 -0.45852,-2.035414 -0.6638,-4.83323 -0.50646,-6.902484 0.39707,-5.22195 1.63559,-9.73553 3.94659,-14.382621 1.88216,-3.784755 4.10894,-7.035401 7.12579,-10.402201 3.30463,-3.687952 9.06172,-8.604005 11.45918,-9.785126 0.82739,-0.407619 1.8507,-0.811245 1.90899,-0.752962 0.0126,0.0126 -0.21892,0.226576 -0.51448,0.475513 -0.75741,0.637935 -1.58503,1.681312 -1.58503,1.998238 0,0.229775 0.0193,0.246722 0.33572,0.294167 0.30002,0.04499 0.39118,0.01799 0.85732,-0.253931 0.68999,-0.4025 1.79142,-0.864607 2.7316,-1.146046 1.3299,-0.398101 1.30167,-0.410227 0.6287,0.270013 -0.52319,0.52885 -0.5906,0.629245 -0.5906,0.879623 0,0.287449 0.0291,0.311274 0.45724,0.37428 0.0629,0.0093 0.57727,-0.211101 1.1431,-0.489672 1.43144,-0.704727 3.22293,-1.244485 5.14395,-1.549814 0.96001,-0.152586 2.89233,-0.182395 3.33404,-0.05143 0.15717,0.0466 0.28577,0.07186 0.28577,0.05612 0,-0.01573 -0.10581,-0.20805 -0.23512,-0.427368 -0.601,-1.019312 -0.90798,-2.193768 -0.90798,-3.473868 0,-0.957053 0.16501,-1.671523 0.5019,-2.173175 l 0.21768,-0.324155 0.0906,1.124218 c 0.14897,1.848928 0.42816,2.947112 1.06009,4.169955 0.97069,1.878356 2.70031,3.213421 4.8065,3.71005 3.18829,0.751786 5.03629,1.542233 6.60375,2.824623 0.91607,0.749465 1.81532,2.044909 2.11579,3.048001 0.053,0.176754 0.12116,0.306 0.15157,0.2872 0.22618,-0.139778 0.60147,-6.687068 0.49163,-8.576693 l -0.0512,-0.880893 0.49625,-0.986169 c 1.27232,-2.528428 1.97203,-5.039086 2.3031,-8.263899 0.1624,-1.581883 0.12294,-5.016579 -0.074,-6.439457 -0.31671,-2.288493 -0.68231,-3.362481 -1.37487,-4.03895 -2.08123,-2.032848 -5.48216,-0.411245 -5.18902,2.474179 0.0678,0.666973 0.28364,1.106123 1.01678,2.068366 2.18394,2.866398 2.93751,5.152959 3.11153,9.441366 0.0281,0.691575 0.0301,1.238274 0.004,1.214885 -0.0256,-0.02339 -0.0975,-0.404767 -0.15962,-0.847508 -0.36384,-2.591953 -1.35632,-5.440356 -2.63727,-7.568901 -0.5313,-0.882863 -0.84539,-1.215314 -1.41156,-1.494035 -1.77636,-0.874502 -3.68689,0.699261 -3.15839,2.601662 0.17142,0.617051 0.4753,0.941958 1.57529,1.684348 1.81291,1.223547 2.86123,2.454792 3.82361,4.490782 0.47854,1.012396 0.71977,1.595312 0.6602,1.595312 -0.0202,0 -0.18783,-0.300871 -0.37251,-0.668603 -0.98083,-1.952945 -2.70887,-3.552944 -4.96106,-4.593458 -1.9171,-0.885702 -4.45638,-1.535504 -8.45997,-2.164902 -4.6359,-0.728804 -5.14417,-0.832055 -6.41873,-1.303919 -0.40958,-0.151634 -1.10184,-0.463105 -1.53838,-0.692158 -0.78608,-0.412467 -2.04447,-1.229153 -2.22019,-1.440889 -0.0505,-0.0609 -0.22213,-0.109821 -0.38519,-0.109821 -0.25884,0 -0.29954,0.02509 -0.33997,0.209568 -0.0253,0.115262 -0.0574,0.247815 -0.0713,0.294562 -0.014,0.04675 0.15685,0.327259 0.37961,0.623362 0.22275,0.296103 0.42744,0.574673 0.45486,0.619045 0.0714,0.115492 -0.0953,0.04924 -1.13925,-0.452861 -0.92151,-0.443201 -1.86927,-1.022334 -2.44646,-1.494912 -0.2049,-0.167762 -0.39379,-0.256004 -0.54801,-0.256004 -0.268,0 -0.28286,0.01625 -0.34852,0.381183 -0.0436,0.242016 -0.002,0.327919 0.4439,0.922315 0.27055,0.360493 0.73701,0.90054 1.03657,1.200105 l 0.54467,0.544661 -0.41087,0 c -0.52725,0 -1.94107,-0.17557 -3.08855,-0.38354 C 59.97034,43.700109 54.26743,40.862756 49.65855,36.874753 44.79624,32.66746 41.13315,27.418543 38.97219,21.56208 38.15697,19.352741 37.41242,16.277825 37.15052,14.038829 36.8726,11.662779 36.67634,10.843128 36.14176,9.8258314 34.34396,6.4045923 29.7128,7.516403 23.2707,12.91581 c -1.55227,1.301029 -1.54849,1.295848 -0.75111,1.029144 1.39344,-0.466072 2.79391,-0.668191 4.62985,-0.668191 1.70531,0 3.10399,0.209575 2.25844,0.3384 -4.91605,0.748995 -9.62834,2.715787 -12.26917,5.120852 -1.00559,0.915812 -1.57925,1.616295 -2.90451,3.546624 -0.13508,0.196753 -0.11628,0.192265 0.52798,-0.126048 0.81206,-0.401222 1.61963,-0.673733 2.64149,-0.891363 1.24725,-0.265632 4.12661,-0.214784 4.67646,0.08258 0.0529,0.0286 -0.22206,0.09218 -0.61096,0.141302 -3.7847,0.478018 -8.25634,2.959043 -10.9206,6.059142 -1.0143704,1.180301 -1.5431003,2.010717 -2.4370404,3.827571 -2.23644,4.545396 -3.44852,8.819978 -3.93278,13.869602 -0.14208,1.48148 -0.12121,4.982809 0.0393,6.591871 0.15346,1.538542 0.49616,3.656722 0.81375,5.029635 1.21481,5.251526 3.1329,9.565529 8.4217104,18.941364 5.00634,8.875099 6.21884,11.236435 7.10017,13.827489 0.1497,0.440102 0.2966,0.828072 0.32646,0.862172 0.0944,0.10784 1.37186,-1.692074 2.19983,-3.099566 1.72283,-2.928686 2.84791,-6.388072 2.92183,-8.983996 0.0116,-0.408628 0.0452,-0.742984 0.0747,-0.743015 0.0294,-2.3e-5 0.16145,0.156856 0.29339,0.348623 1.10213,1.601908 1.51548,4.327268 1.09618,7.227644 -0.0601,0.41569 -0.0961,0.768982 -0.08,0.785092 0.0525,0.0525 0.91012,-0.703722 1.4771,-1.302434 2.05992,-2.175204 3.77786,-5.569695 4.70201,-9.290742 0.56403,-2.271056 0.76121,-4.028761 0.71237,-6.35025 -0.0328,-1.55918 -0.0319,-1.570565 0.1131,-1.391517 0.39401,0.486586 1.01372,2.003898 1.34295,3.288109 0.32007,1.248508 0.47313,2.242989 0.52838,3.432962 l 0.0489,1.053198 0.58662,-0.976991 c 1.80752,-3.010382 2.92923,-6.041019 3.42186,-9.245118 0.20326,-1.322035 0.2773,-3.950549 0.14956,-5.309223 -0.16076,-1.709762 -0.51498,-3.391739 -1.04339,-4.954307 -0.14858,-0.439383 -0.25235,-0.816672 -0.23061,-0.83842 0.0646,-0.06461 0.82883,0.475277 1.2288,0.868088 0.86718,0.851665 1.51337,1.988065 2.06162,3.625609 l 0.33092,0.988405 0.12466,-0.295644 c 0.35316,-0.837514 0.69498,-2.625131 0.88714,-4.63942 0.11426,-1.197724 0.11224,-4.743795 -0.004,-6.096528 -0.25755,-3.010787 -0.80515,-5.53125 -1.53979,-7.087214 -0.13852,-0.293395 -0.2661,-0.567739 -0.28351,-0.609653 -0.0807,-0.194204 0.69981,0.866926 1.18425,1.610097 1.98519,3.045438 3.21604,6.724882 3.69316,11.040199 0.15602,1.411119 0.13373,5.552383 -0.0384,7.125317 -0.71997,6.580822 -2.99179,13.381582 -6.46631,19.357072 -0.64852,1.115321 -1.42606,2.367667 -1.5137,2.438017 -0.0261,0.021 -0.26179,0.35828 -0.52373,0.749602 -2.32263,3.469826 -5.56481,6.961854 -8.58745,9.249208 -1.75392,1.327262 -3.44034,2.293394 -5.88074,3.369006 -0.55631,0.245202 -1.02512,0.467882 -1.04179,0.494852 -0.0167,0.027 0.0897,0.39107 0.23639,0.809112 0.14668,0.41805 0.39825,1.274482 0.55906,1.903194 1.3502,5.279026 0.89099,10.269406 -1.30095,14.137566 -0.16443,0.29018 -0.29897,0.54483 -0.29897,0.56589 0,0.085 1.38593,-0.45715 2.17189,-0.84957 4.06769,-2.03099 6.48977,-5.26589 7.09197,-9.47197 0.069,-0.48201 0.13319,-0.88481 0.14261,-0.89512 0.009,-0.0103 0.0938,0.36304 0.18755,0.82965 0.55792,2.77732 1.78715,5.84329 3.17787,7.92627 1.90317,2.85051 4.21973,4.90679 7.15614,6.35208 3.14187,1.54642 6.96254,2.24977 10.55461,1.943 z m -8.01598,-19.18 c 0.055,-0.022 0.12074,-0.0193 0.14606,0.006 0.0253,0.0253 -0.0197,0.0433 -0.10002,0.04 -0.0888,-0.004 -0.10684,-0.0217 -0.046,-0.046 z M 21.510679,69.593582 c -4.11938,-1.140973 -7.67539,-5.180537 -9.65945,-10.972977 -3.1617093,-9.230568 -1.62614,-20.241422 3.53971,-25.381607 0.78,-0.776127 1.5541,-1.34567 2.01923,-1.485655 0.18602,-0.05598 0.6661,-0.138349 1.06685,-0.183035 2.51134,-0.280031 5.39335,0.983006 7.29429,3.196712 2.47094,2.877484 4.3719,7.08115 5.27265,11.65961 0.43497,2.210963 0.53436,3.343908 0.53813,6.134631 0.002,1.668457 -0.0314,2.875935 -0.0946,3.391194 -0.35221,2.873937 -0.9045,5.127937 -1.77718,7.252917 -0.52991,1.290328 -0.895,1.968082 -1.47791,2.74356 -1.31108,1.744194 -2.95876,2.985409 -4.67901,3.524746 -0.88527,0.277552 -1.37068,0.306046 -2.04274,0.119904 z m 1.19684,-5.184226 c 2.20625,-0.644183 4.33622,-2.415931 5.63654,-4.688598 1.33853,-2.33946 1.95559,-5.34824 1.75576,-8.561136 -0.0454,-0.730492 -0.10539,-1.365034 -0.13323,-1.410092 -0.0279,-0.04506 -0.0411,-0.192289 -0.0295,-0.32718 0.0582,-0.676129 -0.35845,-3.007382 -0.76704,-4.291232 -1.32692,-4.169343 -4.14095,-7.160975 -7.64814,-8.130822 -0.66445,-0.183741 -0.89361,-0.209635 -1.86266,-0.210474 -1.21091,-0.0011 -1.62299,0.08281 -2.47671,0.504005 -0.74513,0.367623 -0.73886,0.322233 -0.16872,1.220358 0.6881,1.083946 1.33504,2.25319 2.0039,3.621722 0.82931,1.696852 0.81948,1.484298 0.0854,1.844265 -1.46598,0.718812 -2.92568,2.202329 -4.2673,4.336929 -0.56459,0.898285 -1.50128,2.739689 -1.49994,2.948648 0.002,0.294819 1.36199,2.068641 2.47499,3.227854 1.64116,1.709298 3.21733,2.734894 4.82007,3.136352 0.17813,0.04462 0.32388,0.09124 0.32388,0.103604 0,0.01236 -0.13603,0.518581 -0.30229,1.124931 -0.37068,1.351911 -1.11973,3.55708 -1.52806,4.498526 -0.16689,0.384793 -0.30344,0.721649 -0.30344,0.748572 0,0.08724 0.55978,0.319694 1.02879,0.427214 0.66826,0.153196 2.12592,0.09024 2.85775,-0.123446 z m -0.1943,-2.467565 c -0.27541,-0.119963 -0.62482,-0.513901 -0.69152,-0.77966 -0.0737,-0.293433 0.0156,-0.759386 0.19319,-1.008809 0.20192,-0.283572 0.74657,-0.502304 1.08942,-0.437516 0.64865,0.122572 1.01984,0.619614 0.95633,1.280574 -0.0406,0.422862 -0.30431,0.768973 -0.721969,0.947679 -0.302801,0.12956 -0.524191,0.128951 -0.82545,-0.0023 z m 0.42291,-6.529615 c -1.134989,-0.127017 -2.33028,-0.809089 -3.54287,-2.021677 -0.71209,-0.71209 -1.94052,-2.261138 -1.94282,-2.449897 -0.002,-0.193068 0.8393,-1.765685 1.3687,-2.55739 1.21581,-1.818203 2.48298,-2.746721 4.03325,-2.955354 1.81949,-0.244866 3.74626,1.012168 5.48346,3.57745 l 0.63673,0.940237 -0.40815,0.926313 c -0.46874,1.063848 -0.99595,1.93684 -1.6617,2.751586 -1.1561,1.414833 -2.379179,1.96638 -3.9666,1.788732 z m 2.24879,-3.486812 c 0.25187,-0.119153 0.56914,-0.343296 0.70506,-0.498096 0.31343,-0.356985 0.62787,-0.973561 0.62787,-1.231199 0,-0.405971 -0.721309,-1.215744 -1.32864,-1.491592 -0.54059,-0.245534 -1.4148,-0.147027 -1.4148,0.159422 0,0.296407 0.26851,0.875134 0.53698,1.157351 l 0.28944,0.30427 -0.23942,0.339669 C 24.1615,50.94881 24.1171,51.091434 24.09234,51.529528 l -0.0297,0.524671 0.21784,0.03254 c 0.11981,0.0179 0.269279,0.03766 0.332149,0.0439 0.0629,0.0062 0.32038,-0.08613 0.572241,-0.205283 z m -4.01583,-8.599055 c 0.055,-0.02201 0.12074,-0.01931 0.14607,0.006 0.0253,0.02532 -0.0197,0.04333 -0.10002,0.04002 -0.0888,-0.0037 -0.10684,-0.02171 -0.046,-0.04604 z m 1.21455,0.0016 c 0.0524,-0.02114 0.13812,-0.02114 0.19051,0 0.0524,0.02114 0.01,0.03844 -0.0953,0.03844 -0.10478,0 -0.14765,-0.0173 -0.0953,-0.03844 z m -1.70481,-2.036226 c -0.31987,-0.144798 -0.6213,-0.556848 -0.67743,-0.926019 -0.035,-0.230459 -0.004,-0.383331 0.12983,-0.643459 0.5596,-1.086189 2.1419,-0.717328 2.15339,0.501994 0.004,0.427546 -0.13204,0.687236 -0.50664,0.966911 -0.25378,0.189475 -0.79364,0.238872 -1.09915,0.100573 z m -2.77114,18.633588 c 0.384531,-0.206149 0.64127,-0.733455 0.56806,-1.166746 -0.0716,-0.423606 -0.49402,-0.865576 -0.90018,-0.941772 -0.388069,-0.0728 -0.91134,0.133215 -1.135079,0.4469 -0.234591,0.328879 -0.24213,1.01192 -0.0146,1.322092 0.33613,0.45822 0.983641,0.606586 1.4818,0.339526 z m -1.2389,-15.924148 c 0.3104,-0.221022 0.50018,-0.709208 0.43218,-1.1117 -0.0684,-0.404901 -0.49987,-0.849132 -0.89712,-0.923656 -0.38402,-0.07204 -0.91152,0.133352 -1.12981,0.439917 -0.25437,0.357218 -0.277,0.940133 -0.0496,1.277508 0.3622,0.537395 1.12816,0.685491 1.64435,0.317931 z m 75.69697,11.790883 c -0.36761,-0.541775 -0.956909,-1.042291 -1.77731,-1.509532 -1.2309,-0.701027 -1.6574,-1.11182 -1.6574,-1.596351 0,-0.583503 0.42832,-0.925031 1.1601,-0.925031 0.624161,0 1.074701,0.189077 1.59221,0.668193 0.7865,0.728167 1.13423,1.538769 1.13423,2.644058 0,0.650463 -0.0593,1.109217 -0.142889,1.105767 -0.0262,-0.0011 -0.165221,-0.175277 -0.308941,-0.387104 z m -1.88229,-9.139682 c -1.02645,-0.657642 -1.05404,-2.432459 -0.047,-3.022629 0.6695,-0.392358 1.77649,-0.193766 2.31057,0.414516 0.639561,0.728422 0.377081,1.169791 -0.76675,1.289345 -0.4526,0.04731 -0.4556,0.04924 -0.49975,0.322661 -0.0746,0.461604 -0.26727,0.916973 -0.43902,1.037263 -0.21047,0.147418 -0.27066,0.142978 -0.55806,-0.04116 z m 0.46274,-1.309543 c 0.0653,-0.09315 0.11863,-0.264618 0.11863,-0.381033 0,-0.171386 0.0341,-0.211663 0.17915,-0.211663 0.28701,0 0.65912,-0.157619 0.65912,-0.279188 0,-0.357062 -0.41256,-0.635291 -0.94202,-0.635291 -0.28604,0 -0.371219,0.03717 -0.537229,0.234467 -0.32695,0.388554 -0.243571,1.010418 0.18024,1.344396 0.16481,0.129872 0.20715,0.121002 0.34211,-0.07169 z m 2.87806,-3.829718 c -0.59471,-0.500407 -0.787869,-1.848313 -0.38795,-2.707093 0.25339,-0.544121 0.53287,-0.868223 0.97059,-1.125542 0.502391,-0.295337 1.306161,-0.297558 1.92953,-0.0053 0.848151,0.397595 1.469301,1.177182 1.562071,1.960505 0.0364,0.307327 0.0154,0.392211 -0.14214,0.575396 -0.301821,0.350889 -0.799401,0.351266 -2.01065,0.0015 -0.13246,-0.03825 -0.20655,0.03689 -0.45459,0.461028 -0.34589,0.591439 -0.79539,1.028273 -1.05809,1.028273 -0.10145,0 -0.2854,-0.08494 -0.40877,-0.188758 z m 1.06841,-1.637618 c 0.10476,-0.08241 0.23505,-0.257443 0.28953,-0.38897 0.1056,-0.254946 0.10766,-0.255222 0.80081,-0.107585 0.35154,0.07488 0.60513,-0.157359 0.532571,-0.487723 -0.0691,-0.314731 -0.45841,-0.762575 -0.77946,-0.896718 -0.81295,-0.339674 -1.54682,0.189962 -1.54682,1.116347 0,0.51148 0.185149,0.872417 0.46601,0.908463 0.0258,0.0033 0.132599,-0.06141 0.237359,-0.143814 z M 63.70667,107.21268 c 3.80811,-0.66314 7.65544,-2.44384 11.469089,-5.30836 1.887331,-1.41762 4.368351,-3.688758 4.2803,-3.9182 -0.0316,-0.0824 -0.002,-0.12 0.0943,-0.12 0.257131,0 2.04793,-2.030224 3.4618,-3.924648 4.71285,-6.314702 7.32217,-13.540423 7.11376,-19.699433 -0.13312,-3.934371 -1.24736,-6.92577 -3.4226,-9.188694 -1.52132,-1.582641 -3.3719,-2.586685 -5.69188,-3.088171 -0.92569,-0.200098 -3.35848,-0.282687 -4.47394,-0.151882 -6.56206,0.769502 -13.68189,5.19572 -19.20783,11.941025 -4.63687,5.660055 -7.59511,12.320741 -8.18539,18.429953 -0.12737,1.318262 -0.0467,4.192648 0.14675,5.23016 0.19025,1.020262 0.42067,1.874894 0.73349,2.72058 0.23351,0.63126 0.25923,0.66749 0.50558,0.71222 0.142761,0.0259 0.21669,0.0516 0.1643,0.0572 -0.21594,0.0227 -0.0997,0.57754 0.24942,1.19011 1.67107,2.93236 4.67606,4.83898 8.34287,5.29342 1.01754,0.12611 3.18241,0.0403 4.41999,-0.17523 z m -0.64776,-5.76251 c -1.2835,-0.341 -2.30725,-0.9195 -3.1908,-1.803076 -1.44155,-1.441552 -2.20073,-3.405176 -2.30905,-5.972352 -0.16447,-3.898028 1.31472,-8.436936 4.10634,-12.600316 3.7139,-5.538856 8.96381,-9.511605 13.97006,-10.571547 0.95912,-0.203068 2.58391,-0.274344 3.49272,-0.153214 1.7392,0.231813 3.17311,0.95858 4.29634,2.177574 0.48179,0.522868 0.54526,0.630312 0.69491,1.176393 0.5256,1.917846 0.5254,4.580139 -7.6e-4,7.012958 -0.84155,3.892964 -2.7954,7.798992 -5.76647,11.52792 -0.9683,1.215292 -3.38735,3.660196 -4.5511,4.599738 -2.81768,2.274826 -5.626231,3.764192 -8.47858,4.496102 -1.1458,0.29399 -1.505,0.31141 -2.26387,0.10981 z m 3.13209,-4.1175 c 0.194609,-1.152432 0.6405,-2.971306 1.09196,-4.45425 0.165239,-0.54277 0.288749,-1.005722 0.274469,-1.028792 -0.0143,-0.0231 1.379851,-0.0323 3.09808,-0.0204 l 3.12406,0.0215 0.73518,-0.20028 c 0.74293,-0.2024 2.78624,-0.966582 2.95173,-1.103922 0.30224,-0.25084 0.41619,-4.76825 0.15656,-6.207102 -0.24413,-1.352974 -0.7507,-2.678809 -1.36242,-3.565869 -0.12139,-0.176022 -0.087,-0.202016 1.65494,-1.2502 1.11205,-0.669162 3.69644,-2.04146 4.09447,-2.174136 0.13222,-0.04408 -0.225,-0.745758 -0.66011,-1.296648 -0.65638,-0.83104 -1.68861,-1.513067 -2.93316,-1.938025 -2.71328,-0.926482 -5.97019,-0.495656 -8.86183,1.172233 -2.14723,1.238525 -4.51375,3.646539 -6.53751,6.652129 -1.32913,1.973964 -2.16518,3.987708 -2.56275,6.172754 -0.1969,1.082152 -0.17939,3.150126 0.035,4.129098 0.53968,2.464784 1.69275,4.322208 3.3581,5.40936 0.59805,0.390402 1.57882,0.757282 1.94777,0.728582 l 0.22177,-0.0172 0.17372,-1.028792 z m -2.4677,-2.870186 c -0.767361,-0.37821 -0.824331,-1.502994 -0.10062,-1.986464 0.1906,-0.12733 0.36923,-0.17299 0.676829,-0.17299 0.391811,0 0.438681,0.0208 0.7508,0.3329 0.31071,0.31072 0.332891,0.36024 0.332621,0.743022 -7.6e-4,0.930372 -0.847981,1.483582 -1.65963,1.083532 z m 4.25639,-5.32896 C 66.85397,88.830882 65.842629,88.057692 65.35251,87.125 64.65856,85.804406 64.51847,83.893432 64.93532,81.434373 l 0.0791,-0.46643 0.88933,-0.384684 c 1.55432,-0.67234 2.46657,-0.911446 3.761489,-0.985938 1.40272,-0.08069 2.32817,0.25117 3.242221,1.162616 0.954499,0.951767 1.40833,2.194303 1.516159,4.151027 0.0428,0.777022 -0.0568,2.462916 -0.174239,2.948366 -0.0716,0.296182 -1.83764,0.947812 -3.377921,1.246394 -0.92337,0.17899 -2.28076,0.19204 -2.891729,0.0278 z m 0.32392,-4.22593 c 0.17907,-0.34618 0.21022,-0.48801 0.18612,-0.84749 l -0.0289,-0.431742 0.32619,-0.0489 c 0.35521,-0.0533 0.97586,-0.43393 1.15238,-0.706812 0.10374,-0.16036 0.0919,-0.19014 -0.18587,-0.46792 -0.45271,-0.452712 -1.09986,-0.575956 -1.89356,-0.36062 -0.57015,0.15469 -0.93694,0.35558 -0.9828,0.53826 -0.20253,0.806972 -0.0656,1.765424 0.32073,2.244384 0.2136,0.264852 0.67596,0.559892 0.81375,0.519292 0.0423,-0.0125 0.17372,-0.20976 0.292,-0.438432 z m -4.59093,0.797202 c 0.004,-0.0888 0.0217,-0.10683 0.046,-0.046 0.022,0.055 0.0193,0.12074 -0.006,0.14606 -0.0253,0.0253 -0.0433,-0.0197 -0.04,-0.10003 z m 0,-2.514824 c 0.004,-0.0888 0.0217,-0.10683 0.046,-0.046 0.022,0.055 0.0193,0.12074 -0.006,0.14606 -0.0253,0.0253 -0.0433,-0.0197 -0.04,-0.10002 z m 12.10111,-2.908559 c -0.0948,-0.120872 -0.0921,-0.123562 0.0288,-0.02878 0.12694,0.09956 0.16732,0.162137 0.10459,0.162137 -0.0158,0 -0.0758,-0.06001 -0.13336,-0.133361 z m 0.46578,-2.293941 c -0.72103,-0.383159 -0.82448,-1.32425 -0.20877,-1.899244 0.73642,-0.687726 1.967119,-0.04482 1.86901,0.976336 -0.081,0.842937 -0.92639,1.31288 -1.66024,0.922908 z m -5.78936,17.802004 c 0.60646,-0.3074 0.81581,-1.037352 0.461789,-1.610162 -0.36319,-0.587662 -1.24038,-0.677182 -1.73998,-0.17758 -0.22929,0.2293 -0.2771,0.33616 -0.30594,0.68389 -0.0518,0.625022 0.15916,0.964512 0.72493,1.166392 0.39236,0.14002 0.47087,0.13429 0.8592,-0.0625 z M 80.2435,83.106682 C 80.72248,82.8207 80.90953,82.1401 80.64781,81.635596 80.266,80.899623 79.20169,80.804312 78.73192,81.46404 c -0.58086,0.81575 0.0824,1.946442 1.054339,1.797322 0.1467,-0.0225 0.35246,-0.0921 0.45724,-0.15468 z m -1.1812,-42.0139 c 5.12875,-0.594782 8.92965,-2.574705 11.04648,-5.754212 0.70643,-1.06105 1.18437,-2.189764 1.50053,-3.543607 0.2234,-0.956667 0.27719,-3.036289 0.10822,-4.184035 -0.5957,-4.046285 -2.81752,-8.10904 -6.5206,-11.923363 C 82.04334,12.439238 78.64877,10.008788 74.26128,7.857839 69.71218,5.6276556 65.23555,4.3526049 60.6203,3.9725662 59.06332,3.8443572 56.10102,3.9230362 54.75239,4.1284199 48.64336,5.0587676 44.56504,8.0662907 43.2526,12.608832 c -0.56914,1.969891 -0.55699,4.273986 0.0347,6.573257 1.11818,4.345367 4.31478,8.946084 8.86616,12.760631 5.41291,4.536609 12.5547,7.827254 19.26951,8.878607 1.03157,0.161515 1.59672,0.224292 3.40989,0.378775 0.58922,0.0502 3.51029,-0.02392 4.22946,-0.10732 z m -4.68671,-8.057774 c -3.848061,-0.116907 -8.34886,-1.464423 -12.231161,-3.661947 -0.97516,-0.551978 -2.90106,-1.856752 -3.81033,-2.581449 -0.962049,-0.766769 -2.836559,-2.60904 -3.53042,-3.469711 -1.65341,-2.050895 -2.80445,-4.363849 -3.17331,-6.376589 -0.151969,-0.829265 -0.14997,-2.218288 0.004,-2.966851 0.27115,-1.315897 0.90305,-2.493267 1.8418,-3.43165 0.71789,-0.7176126 1.11781,-0.9699296 1.8963,-1.1964136 1.47226,-0.4283227 2.25925,-0.5216697 4.40928,-0.5229867 1.67923,-10e-4 2.14988,0.02489 3.08637,0.169972 5.35584,0.8297307 10.49765,3.1834253 14.82219,6.7849503 0.91787,0.764423 2.531181,2.395468 3.25124,3.287005 2.49335,3.087101 3.80028,6.504109 3.50715,9.169546 -0.0649,0.589828 -0.10914,0.724343 -0.35686,1.084022 -0.3654,0.530546 -1.17253,1.336366 -1.75293,1.750097 -1.50592,1.073468 -3.84715,1.81104 -6.05843,1.908618 -0.482,0.02127 -0.97925,0.04589 -1.10499,0.05471 -0.12574,0.0088 -0.48582,0.0082 -0.80017,-0.0013 z m 0.0197,-2.032516 c 2.00353,-0.36927 3.94844,-1.339042 5.20331,-2.594464 1.17292,-1.173444 1.86418,-2.593876 1.86418,-3.8306 l 0,-0.479332 -0.5919,0 c -1.0234,0 -2.96913,-0.148385 -4.5892,-0.34998 -0.85871,-0.106855 -1.5684,-0.201384 -1.57708,-0.210065 -0.009,-0.0087 0.0158,-0.151993 0.0544,-0.31847 0.12392,-0.534496 0.0853,-2.028775 -0.0736,-2.848502 -0.31028,-1.600585 -1.1386,-3.624299 -2.27147,-5.549488 l -0.51509,-0.87534 -1.1812,0.04548 c -3.4333,0.132197 -6.31248,1.028591 -8.00935,2.493603 L 62.2815,16.85381 61.59741,16.075024 c -1.27326,-1.449531 -2.7602,-3.374475 -3.29508,-4.265704 l -0.17179,-0.286241 -0.22531,0.133099 c -1.09816,0.648697 -2.00334,2.11623 -2.34776,3.806327 -0.57735,2.833103 0.37152,6.138977 2.51144,8.749901 1.03446,1.262155 2.75795,2.738415 4.20123,3.598581 1.0661,0.635377 1.51265,0.873695 1.51387,0.807943 6.1e-4,-0.03451 0.027,-0.02209 0.0586,0.0276 0.0962,0.151333 1.90386,1.054665 2.86352,1.431 1.06103,0.416081 2.64705,0.837249 3.73463,0.991732 0.9759,0.138619 3.02814,0.103968 3.9545,-0.06677 z m -9.52649,-2.23417 c 0.11526,-0.01746 0.30387,-0.01746 0.41913,0 0.11526,0.01746 0.021,0.03175 -0.20957,0.03175 -0.23052,0 -0.324831,-0.01429 -0.20956,-0.03175 z M 64.01709,27.20973 c -0.92043,-1.409566 -1.37808,-2.393175 -1.68677,-3.625372 -0.21288,-0.849748 -0.18189,-1.968339 0.072,-2.597742 0.81878,-2.030023 3.06778,-3.180953 6.52451,-3.338935 l 0.99069,-0.04528 0.31615,0.523462 c 1.11404,1.844555 1.779529,3.74884 1.779529,5.092083 0,0.637282 -0.24565,1.55984 -0.56955,2.139033 -0.88279,1.578575 -3.11978,2.468828 -6.21636,2.473917 l -0.80369,0.0013 -0.40648,-0.622489 z m 3.31208,-1.778974 c 0.4815,-0.246399 0.825599,-0.652918 0.910079,-1.075156 0.0445,-0.222413 0.0275,-0.245889 -0.26268,-0.361981 -0.34053,-0.136256 -1.02988,-0.16431 -1.32069,-0.05375 -0.16897,0.06425 -0.19251,0.04584 -0.26936,-0.210672 -0.11072,-0.369534 -0.39562,-0.747785 -0.73899,-0.981111 l -0.27735,-0.188462 -0.18209,0.171066 c -0.59274,0.556851 -0.514,1.82807 0.16868,2.723109 l 0.19762,0.259099 0.66308,-0.02628 c 0.55606,-0.02204 0.73549,-0.06334 1.1117,-0.255859 z m 8.9214,2.152538 c -0.71865,-0.412004 -0.77258,-1.478891 -0.0971,-1.92146 0.5254,-0.344256 1.07164,-0.290029 1.49676,0.148591 0.22125,0.228268 0.26362,0.331523 0.28985,0.706383 0.0256,0.366491 9.9e-4,0.483108 -0.14901,0.705759 -0.3514,0.521487 -0.99655,0.672562 -1.54048,0.360727 z m -17.91649,-9.65452 c -0.98136,-0.229272 -1.22549,-1.471747 -0.40879,-2.080452 0.11048,-0.08234 0.35738,-0.167349 0.54868,-0.188911 0.72213,-0.0814 1.34504,0.560123 1.2478,1.28509 -0.0896,0.667915 -0.74673,1.13402 -1.38769,0.984273 z m 19.52383,3.734064 c 0.3641,-0.22201 0.51309,-0.499582 0.51309,-0.955934 0,-0.723652 -0.45029,-1.133049 -1.19377,-1.085358 -0.46983,0.03014 -0.72934,0.196922 -0.94181,0.605283 -0.27104,0.52092 0.0358,1.332768 0.57878,1.53125 0.26622,0.09732 0.80915,0.04778 1.04371,-0.09524 z M 63.84778,14.134959 c 0.36684,-0.273885 0.50664,-0.538532 0.50664,-0.959043 0,-0.667061 -0.46188,-1.118458 -1.14443,-1.118458 -0.94012,0 -1.43323,1.106411 -0.81863,1.836815 0.38463,0.457109 1.02483,0.562908 1.45642,0.240686 z"
     id="path4138"
     inkscape:connector-curvature="0" />
</svg>
