<svg xmlns="http://www.w3.org/2000/svg" width="24" height="24" viewBox="-9.5 -9.5 12 12"><g transform="matrix(0.10286449,0,0,0.10286449,-47.597878,-61.463642)" color="#000"><rect style="isolation:auto;mix-blend-mode:normal" width="106.27083" height="106.27083" x="375.56335" y="510.35977" ry="15.664715" overflow="visible" solid-color="#000000" fill="none" stroke="#fff" stroke-width="7.36812401" stroke-linecap="round" stroke-linejoin="round"/><g fill="#fff" fill-rule="evenodd"><path d="M452.57356727 516.34342323l-.7149686.29983787c-.9640571.3945137-1.66629594.86556234-2.02334627 1.36589186-.42846233.59659012-.74952217 1.73110602-.84478316 2.99162953l-.0844793 1.10770536h-.4512312c-.76181796 0-1.02445595.54842254-.82212035 1.72235252.14294934.83705518.3208091 1.17287658.6778787 1.30759108.19042556.06749242.25146088.15363848.20399433.33647396-.02382008.13477043-.13139615.7698797-.22665714 1.42420195-.33326885 2.14566237-.55958845 2.32943938-3.2019094 2.52189532-.80931344.0673992-1.38048403.1532656-1.48764542.2398591-.1190425.08660285-.74911713.17415656-1.7369461.2415278-2.84474333.2117062-3.99932243.58563658-5.33241705 1.73068652-1.51156192 1.29900537-3.50051858 4.17629863-4.66688234 6.72617908-.36896038.81788882-.98765538 2.001113-1.38049368 2.61685083-2.03533347 3.29080553-3.80802895 6.98609948-3.8200547 7.97712873-.01186182.365643.34470632 1.42440704.89217256 2.63683753.20232595.44256943.73851864.5682228 2.67856218.6163158l1.68955668.03831407v.49138957c0 .46180104-.02449513.49934137-.86950975 1.2209696-.82131027.683165-.89111176.78882232-1.12910995 1.50082075-.61894575 1.8667341-1.03591272 4.1759444-.91689915 5.08044538.22624245 1.6934911.76190474 2.85863962 2.77335063 6.05322184 1.39259658 2.19377403 1.9390888 3.22366736 2.21291354 4.0993349l.14423197.4414135 1.3083777.14492226 1.2980685.15324695.3441084.51971028c1.49959403 2.32852583 5.49998693 7.1408007 8.13048464 9.80608946.7736412.77937898 4.39196786 3.72285024 6.82003354 5.53185222 1.71401324 1.2797458 4.0330563 2.7711232 5.86607345 3.74287424l1.6318581.88617362.52335686 1.00942187c.70220027 1.347145.74975362 1.501753.47596746 1.74233923-.41656194.3753194-.29734586.98164184.4285684 2.06882915 2.2852899 3.4448635 2.642022 4.1661002 2.39216198 4.9455258-.1904545.59652486-.10723854.89510425.36882535 1.38587856l.36880607.36478534-.07001365 1.12602342c-.03558545.61578444-.190522 1.8958099-.3214263 2.84839458-.16666335 1.1257624-.2380175 2.1069661-.2142842 2.79007516.03577832.95261264.07011008 1.1075469.39148816 1.57909892.1904545.28860467.5843536.66295456.8818634.83619753 1.02659686.64052544 2.44066043.17848202 3.05768707-.36479468.94039133-.72165618 1.36926834-1.47291022 1.45260966-2.5602094.07155665-1.0584564-.1302196-1.91506947-.93956197-3.92610124-.53567194-1.32789474-.58475864-1.5204439-.4656583-1.85728143.1308561-.38489324.02420583-.7301207-.4162051-1.4325173-.10724818-.1731591-.3560281-1.07756686-.55838297-2.02052174-.41650408-1.9533276-.39245256-2.18403236.2740369-4.47412292.27391152-.9333624.34427234-1.3962821.2966997-1.75233258-.08332202-.62546084-.72677254-1.66366953-1.6194948-2.64517154-.4404688-.4715893-.76056427-.93381917-.82006623-1.17433083-.07136377-.23087256-.39202822-1.7329425-.72526812-3.3397655-.67854414-3.2811571-1.084199-4.9350104-1.41758355-5.69510185-.26166396-.63514656-1.03436007-1.88673944-1.6771934-2.73345237-.95205062-1.250931-1.89318453-2.9151692-2.20260436-3.86779115-.09518384-.30791086-.30931375-1.5692454-.4759578-2.82006454-.4760832-3.64692126-1.0360188-6.03215376-2.03571922-8.8033329-.17865053-.4810886-.1792388-.48123775.14217786-.69294395l.33377995-.21154772-.74998507-2.19374606c-2.2494055-6.5623515-2.6052793-7.33283713-3.64080626-7.90050992-.57125738-.3079295-.5839389-.32662044-.5480738-.75957873.03558546-.5292282 2.42786317-5.6386189 2.92788214-6.24478286.1903677-.23096578 1.9278249-1.22256368 2.9752812-1.6940318.33323025-.1443909.65395256-.2698485.72526812-.2698485.07155665 0 .20305887.32749672.2864002.74124204.27371864 1.40479322 1.32014305 5.7549128 1.67719338 6.9577135.30950662 1.067993.52434052 1.49163845 1.8811877 3.7528676 1.55918278 2.5883903 2.4650977 4.21316778 2.38186246 4.27090923-.02382007.0095086-.3936098.12608218-.82212034.24152778-2.71364615.779379-4.88043362 2.70380792-5.60644432 4.99383322-.30950662.9910945-.30894728 2.5206182.012344 3.52133317.64279475 2.02065223 2.47451965 3.81950237 4.81935974 4.7239754 1.27364088.48110722 2.29815468.66463254 3.80974553.66463254 1.59500933-.00969505 2.47500184-.17394214 3.92719682-.75124472 1.737679-.70244322 3.04839048-1.71213543 3.92925092-3.03994627 1.22790056-2.05045518 1.30539777-4.95666577.1545315-6.46632394-.1069878-.2020391-.3699826-.5585464-.56042744-.78954945-.20232594-.24054896-.36882535-.5101178-.36882535-.60632245 0-.3079295-.34587322-.5962452-1.08379395-.8944983-.5354694-.2212987-.73642595-.3643845-.86743634-.61464715-.1546858-.2982438-.2634384-.35628355-1.1085109-.5680084-1.14264012-.29831835-1.13039255-.27954353-1.5350348-2.5119113-.35709856-1.98212375-.70172773-2.86660074-1.9038409-4.887225-.8095063-1.34713568-.929166-1.63683105-1.1909457-2.7434271-.16667298-.67355384-.46310267-1.88611485-.66551542-2.6751516-.3094584-1.22204163-.38197943-1.7600886-.453295-3.5113398-.09528027-2.2323864-.2615675-3.14730957-.84476386-4.62902923-.7617601-1.9725872-1.9041109-3.10679546-4.6298214-4.61738584-1.1663927-.64468314-1.78432585-1.0502063-1.78432585-1.15600348 0-.2117062-.76293662-.6445899-2.1078352-1.20265155-1.24973402-.5196264-1.34546756-.5772746-1.34546756-.90449167 0-.40417146.10774966-.55831334.5480738-.7795561.46425994-.23098442 1.21442824-1.04865883 1.9285771-2.1071339.3331917-.5003202.5958779-.75926177.8221107-.8361882.22603995-.08650963.53421574-.39452304.9745881-.99110384.71410066-.98147404.85743576-1.47222038.5480738-1.8955955-.20229702-.2790308-.1899723-.2987192.1195054-.78954945.7022292-1.13541084.9643464-2.73258543.59547284-3.74287426-.19045448-.519673-.84690478-1.17433083-1.16828287-1.17433083-.09528028 0-.28532973-.14329088-.41619547-.31648724-.36900858-.46184766-.8449471-.79905806-1.7019296-1.17433084l-.76029425-.33647396zM386.1697956 578.70697026v28.19009272h5.83170313v-8.18649507c0-4.53288048.09344796-8.00760286.21002165-7.82731233.1166219.1804863 1.0030275 3.17932184 1.98293895 6.65223573 1.00301787 3.473091 2.00916996 6.99277414 2.26563594 7.8273403l.46443353 1.53423138H403.66492422V578.70697026h-6.0618995v7.82341568l-.02420582 7.8507669-1.02578678-3.384689c-.5832735-1.8718333-1.63543593-5.38873845-2.35854386-7.84684225l-1.32869707-4.44265134h-3.33586114zm19.59518132 0v28.21350066l6.36885053-.07019585 6.34865652-.06637376 1.1873293-.60901655c1.4699009-.7440387 2.4979443-1.9181458 3.17432825-3.5642617.3966958-.99241826.4893337-1.75841995.51291267-3.72041717.023145-1.42063156-.11538752-2.88721204-.27867556-3.45107206-.39659936-1.24008934-1.5398374-2.50401543-2.8229581-3.04502685l-1.00561204-.4255192.65426117-.33966214c1.98283287-.96977473 2.7309374-2.61544318 2.75430422-6.0432285 0-2.21014373-.0731961-2.6162076-.60984205-3.74384374-.67638394-1.46576014-1.74654162-2.34510995-3.3560455-2.81862894-.8164884-.22566147-2.5906015-.3162076-7.02310207-.3162076zm27.64813016 0c-4.52599675 0-4.5521699-.00027966-4.6685893.49580828-.07011007.29325643-1.2123066 6.40342734-2.58874024 13.59728043-1.35301862 7.19395563-2.5188327 13.30715624-2.58873062 13.57777847l-.11702695.51922554h6.78884566l.11702695-.74565142c.16315302-.90207723.60579166-4.69163683.60579166-5.0750665 0-.20294337.60682355-.2693824 2.31007436-.2693824h2.31007434l.27864662 3.04505483.3029103 3.04504548h3.594333c1.95939855 0 3.57009826-.08958594 3.57009826-.1796939 0-.09014528-1.21583622-6.40666214-2.68565998-13.98376778-1.46963088-7.59967457-2.6816096-13.86814504-2.6816096-13.91351598 0-.0673992-2.0511203-.1131337-4.54744446-.1131337zm-19.85770357 4.73543233c.89137215-.00997472 2.43688973.31763387 2.7341295.6558697.5133177.5861493.7212274 2.3908258.46443352 3.7438251-.27969778 1.51099125-.8632413 1.91683138-2.61295572 1.91683138h-1.37716657v-3.00211695c0-1.66875944.07338896-3.08742402.18982764-3.17776505.0816826-.09014527.30461724-.1331204.60173164-.13671877zm19.79309043.68319295c.0816826-.01398323.25286886 1.3368347.76329345 5.52012495.32661464 2.72861417.65301712 5.34232343.7229054 5.79337603l.1414353.8588597H431.61602254l.1414353-.63241517c.07011008-.3382172.43925367-2.99836013.8359784-5.93003886.37325184-2.93171602.7269558-5.41128876.7269558-5.5240216.00867936-.0536024.01658724-.08371298.02835262-.0859503zm-20.5846497 10.36876556h1.26003354c2.42603085 0 2.94211632.6074318 3.10568402 3.4940006.13997907 2.52580132-.2133584 3.51664413-1.44985155 3.8999899-.51313448.15790803-1.3526425.27179683-1.86583486.22642588l-.9329078-.06637376-.0686635-3.7906876z" style="isolation:auto;mix-blend-mode:normal" overflow="visible" solid-color="#000000"/></g></g></svg>