<svg xmlns="http://www.w3.org/2000/svg" xmlns:xlink="http://www.w3.org/1999/xlink" width="24" height="24" viewBox="-9.5 -9.5 12 12"><defs><clipPath id="d"><use xlink:href="#a" overflow="visible" width="75.125" height="88.25"/></clipPath><clipPath id="e"><use xlink:href="#b" overflow="visible" width="75.125" height="88.25"/></clipPath><clipPath id="f"><use xlink:href="#c" overflow="visible" width="75.125" height="88.25"/></clipPath></defs><g transform="matrix(0.18714326,0,0,0.18714326,-10.66609,-11.795686)" fill="green"><defs><path id="a" d="M-29.208 3.3329999h135v81.889999h-135z"/></defs><path clip-path="url(#d)" d="M28.493 53.487L24.16 46.85l-4.812 3.614s1.685.047 1.685 1.813v12.496l3.396-2.549v-8.836l3.871 5.927 3.589-2.694V41.046l-3.396 2.55v9.891zM42.262 39.014l-3.831 2.876v-5.756l-5.174 3.885s1.686.047 1.686 1.812v12.498l3.488-2.619v-5.696l3.831-2.876v5.695l3.32-2.494V30.763l-3.32 2.496v5.755zM51.968 37.567v-11.6l-5.173 3.885s1.686.047 1.686 1.813v12.496l9.631-7.232c-.209-2.492 0-3.975 0-3.975l-6.144 4.613z" fill="#fff"/><g clip-path="url(#d)" fill="#fff"><defs><path id="b" d="M57.945 13.315s-3.738 3.489-8.898 3.489c-6.463 0-10.755-4.538-10.755-4.538S34 16.805 27.537 16.805c-5.16 0-8.898-3.489-8.898-3.489-2.625 7.131-8.259 8.268-8.259 8.268s2.442 4.977 2.442 11.435c0 9.584-4.331 12.354-4.331 19.899 0 10.549 8.22 17.265 15.841 19.199 6.036 1.532 9.981 1.707 12.631 2.985 0 0 .964.882 1.329 1.287.365-.405 1.329-1.287 1.329-1.287 2.65-1.278 6.596-1.453 12.631-2.985 7.621-1.935 15.841-8.65 15.841-19.199 0-7.545-4.331-10.315-4.331-19.899 0-6.458 2.442-11.435 2.442-11.435s-5.634-1.138-8.259-8.269M15.588 33.019c0-4.097-.888-7.635-1.652-9.924 1.779-.976 4.012-2.702 5.791-5.673 1.912 1.07 4.624 2.149 7.81 2.149 4.827 0 8.598-2.106 10.755-3.691 2.157 1.585 5.929 3.691 10.755 3.691.771 0 1.514-.064 2.223-.175L11.755 49.07c1.139-4.466 3.833-8.162 3.833-16.051m49.739 19.899c0 8.949-7.132 14.832-13.755 16.518-4.781 1.216-10.629 1.842-12.396 2.85-.398.291-.885.809-.885.809s-.487-.518-.885-.809c-1.766-1.008-7.614-1.634-12.395-2.85-.18-.045-.36-.096-.541-.146l37.616-28.25c1.284 4.481 3.241 7.417 3.241 11.878m-4.332-19.899c0 1.702.126 3.208.334 4.569L20.971 67.896c-5.057-2.599-9.483-7.587-9.705-14.437L57.65 18.625c1.617 2.246 3.475 3.633 4.998 4.469-.764 2.289-1.653 5.827-1.653 9.925"/></defs><g clip-path="url(#e)"><defs><path id="c" d="M8.4910002 12.267h59.603001v64.124001H8.4910002z"/></defs><path clip-path="url(#f)" d="M-21.637 33.363l70.122-49.101 49.738 71.033-70.123 49.1"/></g></g></g></svg>