<?xml version="1.0" encoding="UTF-8" standalone="no"?>
<!-- Created with Inkscape (http://www.inkscape.org/) -->

<svg
   xmlns:dc="http://purl.org/dc/elements/1.1/"
   xmlns:cc="http://creativecommons.org/ns#"
   xmlns:rdf="http://www.w3.org/1999/02/22-rdf-syntax-ns#"
   xmlns:svg="http://www.w3.org/2000/svg"
   xmlns="http://www.w3.org/2000/svg"
   xmlns:sodipodi="http://sodipodi.sourceforge.net/DTD/sodipodi-0.dtd"
   xmlns:inkscape="http://www.inkscape.org/namespaces/inkscape"
   width="24mm"
   height="24mm"
   viewBox="0 0 85.03937 85.03937"
   id="svg4153"
   version="1.1"
   inkscape:version="0.91 r13725"
   sodipodi:docname="wta.svg">
  <defs
     id="defs4155" />
  <sodipodi:namedview
     id="base"
     pagecolor="#182843"
     bordercolor="#666666"
     borderopacity="1.0"
     inkscape:pageopacity="1"
     inkscape:pageshadow="2"
     inkscape:zoom="2.858325"
     inkscape:cx="56.762658"
     inkscape:cy="58.925243"
     inkscape:document-units="px"
     inkscape:current-layer="layer1"
     showgrid="false"
     inkscape:window-width="1920"
     inkscape:window-height="1017"
     inkscape:window-x="1912"
     inkscape:window-y="-8"
     inkscape:window-maximized="1" />
  <metadata
     id="metadata4158">
    <rdf:RDF>
      <cc:Work
         rdf:about="">
        <dc:format>image/svg+xml</dc:format>
        <dc:type
           rdf:resource="http://purl.org/dc/dcmitype/StillImage" />
        <dc:title></dc:title>
      </cc:Work>
    </rdf:RDF>
  </metadata>
  <g
     inkscape:label="Layer 1"
     inkscape:groupmode="layer"
     id="layer1"
     transform="translate(0,-967.32283)">
    <g
       style="display:inline"
       id="g4250"
       transform="matrix(0.3063189,0,0,0.3063189,-98.761233,807.4185)">
      <path
         style="display:inline;fill:#ffffff;stroke:none"
         d="m 508,558.19922 a 93.331385,141.08711 66.027461 0 0 -79.30078,15.03711 93.331385,141.08711 66.027461 0 0 -97.86133,141.3164 93.331385,141.08711 66.027461 0 0 162.90625,33.86719 93.331385,141.08711 66.027461 0 0 97.86133,-141.3164 A 93.331385,141.08711 66.027461 0 0 508,558.19922 Z m -101.9375,67.86133 c 2.65879,0.12913 5.25085,1.62097 6.44922,3.91015 l 14.28516,30.85742 12.56445,-27.96679 c 1.36763,-3.49646 2.88143,-6.91191 11.34961,-6.48438 l 60.77539,0.21485 c 9.22897,0.24405 7.44394,15.49303 0.3125,15.59179 l -22.58399,0 -1.09765,40.55664 c -2.03416,8.07795 -13.21487,9.29977 -16.06836,-0.1914 l 0.14258,-39.55469 -19.85938,-0.40625 -17.74023,39.93945 c -5.13134,8.74709 -10.83073,8.40809 -15.85157,-0.26172 L 405.7207,654.74805 393.53711,683.125 c -4.40132,5.72186 -9.20556,8.89156 -15.87695,0.23633 l -20.60157,-46.4961 c -0.73188,-9.64925 7.27821,-13.10765 14.16016,-7.32031 l 14.23633,32.09375 13.75976,-31.31055 c 1.4639,-3.16396 4.18887,-4.3967 6.84766,-4.26757 z m 133.8125,0.0781 c 1.97386,-0.007 4.1285,0.9885 6.09961,3.63086 l 27.23437,47.98828 c 3.81825,7.54051 -5.49163,16.22425 -13.4707,8.16797 l -19.92578,-35.23437 -19.93555,35.125 c -7.09509,7.31459 -16.27935,0.65175 -13.45312,-8.32813 l 27.51367,-47.71875 c 1.16122,-1.95496 3.39968,-3.62169 5.9375,-3.63086 z m -0.49219,44.75781 a 9.4578304,9.4578304 0 0 1 9.45899,9.45704 9.4578304,9.4578304 0 0 1 -9.45899,9.45898 9.4578304,9.4578304 0 0 1 -9.45703,-9.45898 9.4578304,9.4578304 0 0 1 9.45703,-9.45704 z"
         id="path4238"
         inkscape:connector-curvature="0" />
    </g>
  </g>
</svg>
